<svg xmlns="http://www.w3.org/2000/svg" viewBox="0 0 48.1 28.86"><g id="Layer_2" data-name="Layer 2"><g id="Capa_1" data-name="Capa 1"><path d="M48.1 14.43a14.43 14.43 0 01-28.86 0 14.43 14.43 0 1128.86 0z" fill="#ffb600"/><path d="M33.67 0A14.47 14.47 0 0148.1 14.43a14.43 14.43 0 01-28.86 0" fill="#f7981d"/><path d="M33.67 0A14.47 14.47 0 0148.1 14.43a14.42 14.42 0 01-14.43 14.43" fill="#ff8500"/><path d="M14.28 0a14.43 14.43 0 00.15 28.86 14.57 14.57 0 009.69-3.74 13.07 13.07 0 001.45-1.53h-3a16.82 16.82 0 01-1.07-1.45h5.11a9.37 9.37 0 00.84-1.53h-6.76a8.93 8.93 0 01-.61-1.52H28a15.17 15.17 0 00.76-4.59 20.08 20.08 0 00-.3-3.05h-8.84A12.65 12.65 0 0120 9.92h7.94a8.93 8.93 0 00-.61-1.52h-6.72a16.56 16.56 0 01.84-1.53h5.12a7.57 7.57 0 00-1.15-1.53H22.6a13.23 13.23 0 011.45-1.45 14.13 14.13 0 00-9.7-3.74c0-.15 0-.15-.07-.15z" fill="#ff5050"/><path d="M0 14.43a14.42 14.42 0 0014.43 14.43 14.57 14.57 0 009.69-3.74 13.07 13.07 0 001.45-1.53h-3a16.82 16.82 0 01-1.07-1.45h5.11a9.37 9.37 0 00.84-1.53h-6.76a8.93 8.93 0 01-.61-1.52H28a15.17 15.17 0 00.76-4.59 20.08 20.08 0 00-.3-3.05h-8.84A12.65 12.65 0 0120 9.92h7.94a8.93 8.93 0 00-.61-1.52h-6.72a16.56 16.56 0 01.84-1.53h5.12a7.57 7.57 0 00-1.15-1.53H22.6a13.23 13.23 0 011.45-1.45 14.13 14.13 0 00-9.7-3.74h-.07" fill="#e52836"/><path d="M14.43 28.86a14.57 14.57 0 009.69-3.74 13.07 13.07 0 001.45-1.53h-3a16.82 16.82 0 01-1.07-1.45h5.11a9.37 9.37 0 00.84-1.53h-6.76a8.93 8.93 0 01-.61-1.52H28a15.17 15.17 0 00.76-4.59 20.08 20.08 0 00-.3-3.05h-8.84A12.65 12.65 0 0120 9.92h7.94a8.93 8.93 0 00-.61-1.52h-6.72a16.56 16.56 0 01.84-1.53h5.12a7.57 7.57 0 00-1.15-1.53H22.6a13.23 13.23 0 011.45-1.45 14.13 14.13 0 00-9.7-3.74h-.07" fill="#cb2026"/><path d="M19.54 18.09l.23-1.29a3.36 3.36 0 01-.38.07c-.53 0-.61-.3-.53-.46l.45-2.67h.84l.23-1.45h-.76l.15-.92h-1.52s-.92 5-.92 5.65a1.14 1.14 0 001.22 1.3 2.25 2.25 0 00.99-.23zm.54-2.44a2.42 2.42 0 002.67 2.67 4 4 0 001.6-.23l.31-1.45a4.59 4.59 0 01-1.6.38c-1.68 0-1.38-1.22-1.38-1.22h3.13a9.82 9.82 0 00.19-1.37 2.07 2.07 0 00-2.21-2.22c-1.57-.15-2.71 1.53-2.71 3.44zm2.67-2.21c.84 0 .69 1 .69 1.06h-1.68c0-.07.15-1.06.99-1.06zm9.7 4.65l.3-1.68a3.67 3.67 0 01-1.3.39c-1.07 0-1.52-.84-1.52-1.76 0-1.83.91-2.83 2-2.83a2.54 2.54 0 011.37.46l.23-1.6a5.33 5.33 0 00-1.75-.38c-1.76 0-3.51 1.52-3.51 4.43 0 1.9.91 3.2 2.74 3.2a6.84 6.84 0 001.44-.23zm-21.3-6.03a5.4 5.4 0 00-1.84.31l-.23 1.3a4.47 4.47 0 011.68-.31c.54 0 1 .08 1 .53s-.08.39-.08.39H11c-1.29 0-2.75.53-2.75 2.29a1.47 1.47 0 001.45 1.68 2.31 2.31 0 001.6-.69l-.08.61h1.38l.61-4.2a1.81 1.81 0 00-2.06-1.91zm.3 3.44c0 .23-.15 1.45-1.07 1.45a.59.59 0 01-.61-.61c0-.38.23-.92 1.38-.92a1.07 1.07 0 00.3.08zm3.21 2.75a2 2 0 002.29-2c0-1.91-1.83-1.53-1.83-2.29 0-.38.3-.53.84-.53.22 0 1.06.07 1.06.07l.23-1.37A5.85 5.85 0 0015.8 12c-1.14 0-2.29.45-2.29 2 0 1.76 1.91 1.6 1.91 2.29 0 .46-.53.54-.92.54a5 5 0 01-1.37-.23l-.23 1.37c.1.12.46.28 1.76.28zm30.46-7.41l-.31 2.06a2.12 2.12 0 00-1.45-.76c-1.37 0-2.59 1.68-2.59 3.66 0 1.22.61 2.52 1.9 2.52a2.06 2.06 0 001.46-.61l-.08.54h1.53l1.14-7.33zm-.69 4.05c0 .84-.38 1.91-1.22 1.91-.54 0-.84-.46-.84-1.23 0-1.22.53-2 1.22-2 .54.02.84.43.84 1.32zM2.82 18.17l.92-5.5.15 5.5H5l2-5.5-.84 5.5h1.6l1.22-7.33H6.41l-1.52 4.5-.08-4.5H2.6l-1.23 7.33zm23.67 0c.46-2.52.53-4.58 1.6-4.2a6.45 6.45 0 01.54-1.76h-.31c-.68 0-1.22.92-1.22.92l.15-.84H25.8l-1 6h1.68zM36 12.06a5.4 5.4 0 00-1.84.31l-.22 1.3a4.41 4.41 0 011.68-.31c.53 0 1 .08 1 .53s-.08.39-.08.39h-.74c-1.29 0-2.74.53-2.74 2.29 0 1.37.91 1.68 1.45 1.68a2.29 2.29 0 001.6-.69l-.08.61h1.38L38 14a1.79 1.79 0 00-2-1.94zm.38 3.44c0 .23-.15 1.45-1.07 1.45a.59.59 0 01-.61-.61c0-.38.23-.92 1.37-.92.19.08.19.08.27.08zm2.94 2.67c.45-2.52.53-4.58 1.6-4.2a6.19 6.19 0 01.53-1.76h-.3c-.69 0-1.22.92-1.22.92l.15-.84h-1.45l-1 6h1.68z" fill="#fff"/><path d="M17.18 17a1.14 1.14 0 001.22 1.3 2.81 2.81 0 001.14-.23l.23-1.29a3.36 3.36 0 01-.38.07c-.53 0-.61-.3-.53-.46l.45-2.67h.84l.23-1.45h-.76l.15-.92m1.07 4.3c0 2.14.69 2.67 1.91 2.67a4 4 0 001.6-.23l.31-1.45a4.59 4.59 0 01-1.6.38c-1.68 0-1.38-1.22-1.38-1.22h3.13a9.82 9.82 0 00.19-1.37 2.07 2.07 0 00-2.21-2.22c-1.57-.15-1.95 1.53-1.95 3.44zm1.91-2.21c.84 0 1 1 1 1.06h-2c.01-.07.16-1.06 1-1.06zm9.7 4.65l.3-1.68a3.67 3.67 0 01-1.3.39c-1.07 0-1.52-.84-1.52-1.76 0-1.83.91-2.83 2-2.83a2.54 2.54 0 011.37.46l.23-1.6a5.33 5.33 0 00-1.75-.38C30 10.69 29 12.21 29 15.12c0 1.9.15 3.2 2 3.2a6.84 6.84 0 001.45-.23zM9.08 13.74a4.6 4.6 0 011.68-.3c.54 0 1 .07 1 .53 0 .31-.08.38-.08.38H11c-1.29 0-2.75.54-2.75 2.29 0 1.38.92 1.68 1.46 1.68a2.31 2.31 0 001.6-.69l-.08.62h1.37l.61-4.2c0-1.76-1.53-1.84-2.14-1.84m1.14 3.29a2.48 2.48 0 01-1.83 1.5.59.59 0 01-.61-.61c0-.38.23-.92 1.38-.92a5.82 5.82 0 001.06.03zm.79 2.59a6.17 6.17 0 001.75.16 2 2 0 002.29-2c0-1.91-1.83-1.53-1.83-2.29 0-.38.31-.53.84-.53.23 0 1.07.07 1.07.07l.23-1.37a5.85 5.85 0 00-1.47-.13c-1.15 0-1.53.45-1.53 2 0 1.76 1.15 1.6 1.15 2.29 0 .46-.54.54-.92.54m30.23-3.93a2.12 2.12 0 00-1.45-.76c-1.37 0-1.83 1.68-1.83 3.66 0 1.22-.15 2.52 1.14 2.52a2.06 2.06 0 001.46-.61l-.08.54h1.53l1.14-7.33m-2 4c0 .84-.69 1.91-1.53 1.91-.54 0-.84-.46-.84-1.23 0-1.22.53-2 1.22-2a1.17 1.17 0 011.17 1.29zm-41.9 3.25l.92-5.5.15 5.5H5l2-5.5-.84 5.5h1.6l1.22-7.33H7l-2.13 4.5-.08-4.5H4l-2.6 7.33zm22.07 0h1.6c.46-2.52.53-4.58 1.6-4.2a6.45 6.45 0 01.54-1.76h-.31c-.68 0-1.22.92-1.22.92l.15-.84m6.65 1.45a4.54 4.54 0 011.68-.3c.53 0 1 .07 1 .53 0 .31-.08.38-.08.38h-.7c-1.29 0-2.74.54-2.74 2.29 0 1.38.91 1.68 1.45 1.68a2.29 2.29 0 001.6-.69l-.08.62h1.38l.61-4.2c0-1.76-1.53-1.84-2.14-1.84M37 15.5a2.5 2.5 0 01-1.81 1.5.6.6 0 01-.61-.61c0-.38.23-.92 1.38-.92a6.39 6.39 0 001.04.03zm.71 2.67h1.61c.45-2.52.53-4.58 1.6-4.2a6.19 6.19 0 01.53-1.76h-.3c-.69 0-1.22.92-1.22.92l.15-.84" fill="#dce5e5"/></g></g></svg>