<svg xmlns="http://www.w3.org/2000/svg" viewBox="0 0 209.2 34.85"><defs><style>.cls-1{fill:#1a1a1a}</style></defs><g id="Layer_2" data-name="Layer 2"><g id="Layer_1-2" data-name="Layer 1"><path class="cls-1" d="M0 34.4V.1h.55l16.23 19L32.85.1h.55v34.3h-5V16.78l.2-4.9a31.83 31.83 0 01-3 4.1L17 26.26h-.6L7.84 16l-3-4.1c.14 2 .2 3.63.2 4.9v17.6zm90.82-10.48L98 34.4h-6.08l-6.09-8.94a27.87 27.87 0 01-2.85.2h-3.19v8.74h-5.3V.45H83q7 0 10.81 3.39a11.79 11.79 0 013.82 9.29q-.02 7.79-6.81 10.79zm-11-2.8h3q9.43 0 9.44-8t-9.44-8h-3z"/><path d="M120.58 34.85a17 17 0 01-12.38-4.94 16.73 16.73 0 01-5-12.48 16.67 16.67 0 015-12.43A17 17 0 01120.58.05q9.09 0 13.58 6.74l-4 2.9q-3.14-4.9-9.53-4.9a11.35 11.35 0 00-8.64 3.6 12.65 12.65 0 00-3.39 9 12.76 12.76 0 003.39 9.06 12.1 12.1 0 0018.67-1.72l4 2.84q-4.74 7.28-14.08 7.28zm20.07-.45V.45h5.29v15.27h16.33V.45h5.29V34.4h-5.29v-14h-16.33v14zm51.08.45a17.18 17.18 0 01-12.46-4.94 16.71 16.71 0 01-5.07-12.48 16.72 16.72 0 015.07-12.49 18.11 18.11 0 0124.86 0 16.72 16.72 0 015.07 12.49 16.71 16.71 0 01-5.07 12.48 17.1 17.1 0 01-12.4 4.94zM183 26.49a12.26 12.26 0 0017.4 0 12.73 12.73 0 003.4-9.06 12.73 12.73 0 00-3.4-9.07 12.26 12.26 0 00-17.4 0 12.71 12.71 0 00-3.42 9.07 12.7 12.7 0 003.42 9.06z" fill="#fe3e57"/><path class="cls-1" d="M54.07.1h-.6L38.94 34.4h5.1l9.63-24.86 9.79 24.86h5.49L54.07.1z"/></g></g></svg>