<svg xmlns="http://www.w3.org/2000/svg" viewBox="0 0 48.1 28.86"><defs><style>.cls-1{fill:#ffb600;}.cls-2{fill:#f7981d;}.cls-3{fill:#ff8500;}.cls-4{fill:#ff5050;}.cls-5{fill:#e52836;}.cls-6{fill:#cb2026;}.cls-7{fill:#fff;}.cls-8{fill:#dce5e5;}</style></defs><title>Asset 1</title><g id="Layer_2" data-name="Layer 2"><g id="Capa_1" data-name="Capa 1"><path class="cls-1" d="M48.1,14.43a14.43,14.43,0,0,1-28.86,0h0a14.43,14.43,0,1,1,28.86,0Z"/><path class="cls-2" d="M33.67,0A14.47,14.47,0,0,1,48.1,14.43h0a14.43,14.43,0,0,1-28.86,0"/><path class="cls-3" d="M33.67,0A14.47,14.47,0,0,1,48.1,14.43h0A14.42,14.42,0,0,1,33.67,28.86"/><path class="cls-4" d="M14.28,0a14.43,14.43,0,0,0,.15,28.86,14.57,14.57,0,0,0,9.69-3.74h0a13.07,13.07,0,0,0,1.45-1.53h-3a16.82,16.82,0,0,1-1.07-1.45h5.11a9.37,9.37,0,0,0,.84-1.53H20.69a8.93,8.93,0,0,1-.61-1.52H28a15.17,15.17,0,0,0,.76-4.59,20.08,20.08,0,0,0-.3-3.05H19.62A12.65,12.65,0,0,1,20,9.92h7.94a8.93,8.93,0,0,0-.61-1.52H20.61a16.56,16.56,0,0,1,.84-1.53h5.12a7.57,7.57,0,0,0-1.15-1.53H22.6a13.23,13.23,0,0,1,1.45-1.45A14.13,14.13,0,0,0,14.35.15C14.35,0,14.35,0,14.28,0Z"/><path class="cls-5" d="M0,14.43A14.42,14.42,0,0,0,14.43,28.86a14.57,14.57,0,0,0,9.69-3.74h0a13.07,13.07,0,0,0,1.45-1.53h-3a16.82,16.82,0,0,1-1.07-1.45h5.11a9.37,9.37,0,0,0,.84-1.53H20.69a8.93,8.93,0,0,1-.61-1.52H28a15.17,15.17,0,0,0,.76-4.59,20.08,20.08,0,0,0-.3-3.05H19.62A12.65,12.65,0,0,1,20,9.92h7.94a8.93,8.93,0,0,0-.61-1.52H20.61a16.56,16.56,0,0,1,.84-1.53h5.12a7.57,7.57,0,0,0-1.15-1.53H22.6a13.23,13.23,0,0,1,1.45-1.45A14.13,14.13,0,0,0,14.35.15h-.07"/><path class="cls-6" d="M14.43,28.86a14.57,14.57,0,0,0,9.69-3.74h0a13.07,13.07,0,0,0,1.45-1.53h-3a16.82,16.82,0,0,1-1.07-1.45h5.11a9.37,9.37,0,0,0,.84-1.53H20.69a8.93,8.93,0,0,1-.61-1.52H28a15.17,15.17,0,0,0,.76-4.59,20.08,20.08,0,0,0-.3-3.05H19.62A12.65,12.65,0,0,1,20,9.92h7.94a8.93,8.93,0,0,0-.61-1.52H20.61a16.56,16.56,0,0,1,.84-1.53h5.12a7.57,7.57,0,0,0-1.15-1.53H22.6a13.23,13.23,0,0,1,1.45-1.45A14.13,14.13,0,0,0,14.35.15h-.07"/><path class="cls-7" d="M19.54,18.09l.23-1.29a3.36,3.36,0,0,1-.38.07c-.53,0-.61-.3-.53-.46l.45-2.67h.84l.23-1.45h-.76l.15-.92H18.25s-.92,5-.92,5.65a1.14,1.14,0,0,0,1.22,1.3A2.25,2.25,0,0,0,19.54,18.09Z"/><path class="cls-7" d="M20.08,15.65a2.42,2.42,0,0,0,2.67,2.67,4,4,0,0,0,1.6-.23l.31-1.45a4.59,4.59,0,0,1-1.6.38c-1.68,0-1.38-1.22-1.38-1.22h3.13A9.82,9.82,0,0,0,25,14.43a2.07,2.07,0,0,0-2.21-2.22C21.22,12.06,20.08,13.74,20.08,15.65Zm2.67-2.21c.84,0,.69,1,.69,1.06H21.76C21.76,14.43,21.91,13.44,22.75,13.44Z"/><path class="cls-7" d="M32.45,18.09l.3-1.68a3.67,3.67,0,0,1-1.3.39c-1.07,0-1.52-.84-1.52-1.76,0-1.83.91-2.83,2-2.83a2.54,2.54,0,0,1,1.37.46l.23-1.6a5.33,5.33,0,0,0-1.75-.38c-1.76,0-3.51,1.52-3.51,4.43,0,1.9.91,3.2,2.74,3.2A6.84,6.84,0,0,0,32.45,18.09Z"/><path class="cls-7" d="M11.15,12.06a5.4,5.4,0,0,0-1.84.31l-.23,1.3a4.47,4.47,0,0,1,1.68-.31c.54,0,1,.08,1,.53s-.08.39-.08.39H11c-1.29,0-2.75.53-2.75,2.29A1.47,1.47,0,0,0,9.7,18.25a2.31,2.31,0,0,0,1.6-.69l-.08.61H12.6l.61-4.2A1.81,1.81,0,0,0,11.15,12.06Zm.3,3.44c0,.23-.15,1.45-1.07,1.45a.59.59,0,0,1-.61-.61c0-.38.23-.92,1.38-.92A1.07,1.07,0,0,0,11.45,15.5Z"/><path class="cls-7" d="M14.66,18.25a2,2,0,0,0,2.29-2c0-1.91-1.83-1.53-1.83-2.29,0-.38.3-.53.84-.53.22,0,1.06.07,1.06.07l.23-1.37A5.85,5.85,0,0,0,15.8,12c-1.14,0-2.29.45-2.29,2,0,1.76,1.91,1.6,1.91,2.29,0,.46-.53.54-.92.54a5,5,0,0,1-1.37-.23l-.23,1.37C13,18.09,13.36,18.25,14.66,18.25Z"/><path class="cls-7" d="M45.12,10.84l-.31,2.06a2.12,2.12,0,0,0-1.45-.76c-1.37,0-2.59,1.68-2.59,3.66,0,1.22.61,2.52,1.9,2.52a2.06,2.06,0,0,0,1.46-.61l-.08.54h1.53l1.14-7.33Zm-.69,4.05c0,.84-.38,1.91-1.22,1.91-.54,0-.84-.46-.84-1.23,0-1.22.53-2,1.22-2C44.13,13.59,44.43,14,44.43,14.89Z"/><path class="cls-7" d="M2.82,18.17l.92-5.5.15,5.5H5l2-5.5-.84,5.5h1.6l1.22-7.33H6.41l-1.52,4.5-.08-4.5H2.6L1.37,18.17Z"/><path class="cls-7" d="M26.49,18.17c.46-2.52.53-4.58,1.6-4.2a6.45,6.45,0,0,1,.54-1.76h-.31c-.68,0-1.22.92-1.22.92l.15-.84H25.8l-1,6h1.68Z"/><path class="cls-7" d="M36,12.06a5.4,5.4,0,0,0-1.84.31l-.22,1.3a4.41,4.41,0,0,1,1.68-.31c.53,0,1,.08,1,.53s-.08.39-.08.39H35.8c-1.29,0-2.74.53-2.74,2.29,0,1.37.91,1.68,1.45,1.68a2.29,2.29,0,0,0,1.6-.69l-.08.61h1.38L38,14A1.79,1.79,0,0,0,36,12.06Zm.38,3.44c0,.23-.15,1.45-1.07,1.45a.59.59,0,0,1-.61-.61c0-.38.23-.92,1.37-.92C36.26,15.5,36.26,15.5,36.34,15.5Z"/><path class="cls-7" d="M39.32,18.17c.45-2.52.53-4.58,1.6-4.2a6.19,6.19,0,0,1,.53-1.76h-.3c-.69,0-1.22.92-1.22.92l.15-.84H38.63l-1,6h1.68Z"/><path class="cls-8" d="M17.18,17a1.14,1.14,0,0,0,1.22,1.3,2.81,2.81,0,0,0,1.14-.23l.23-1.29a3.36,3.36,0,0,1-.38.07c-.53,0-.61-.3-.53-.46l.45-2.67h.84l.23-1.45h-.76l.15-.92"/><path class="cls-8" d="M20.84,15.65c0,2.14.69,2.67,1.91,2.67a4,4,0,0,0,1.6-.23l.31-1.45a4.59,4.59,0,0,1-1.6.38c-1.68,0-1.38-1.22-1.38-1.22h3.13A9.82,9.82,0,0,0,25,14.43a2.07,2.07,0,0,0-2.21-2.22C21.22,12.06,20.84,13.74,20.84,15.65Zm1.91-2.21c.84,0,1,1,1,1.06h-2C21.76,14.43,21.91,13.44,22.75,13.44Z"/><path class="cls-8" d="M32.45,18.09l.3-1.68a3.67,3.67,0,0,1-1.3.39c-1.07,0-1.52-.84-1.52-1.76,0-1.83.91-2.83,2-2.83a2.54,2.54,0,0,1,1.37.46l.23-1.6a5.33,5.33,0,0,0-1.75-.38C30,10.69,29,12.21,29,15.12c0,1.9.15,3.2,2,3.2A6.84,6.84,0,0,0,32.45,18.09Z"/><path class="cls-8" d="M9.08,13.74a4.6,4.6,0,0,1,1.68-.3c.54,0,1,.07,1,.53,0,.31-.08.38-.08.38H11c-1.29,0-2.75.54-2.75,2.29,0,1.38.92,1.68,1.46,1.68a2.31,2.31,0,0,0,1.6-.69l-.08.62H12.6l.61-4.2c0-1.76-1.53-1.84-2.14-1.84m1.14,3.29A2.48,2.48,0,0,1,10.38,17a.59.59,0,0,1-.61-.61c0-.38.23-.92,1.38-.92A5.82,5.82,0,0,0,12.21,15.5Z"/><path class="cls-8" d="M13,18.09a6.17,6.17,0,0,0,1.75.16,2,2,0,0,0,2.29-2c0-1.91-1.83-1.53-1.83-2.29,0-.38.31-.53.84-.53.23,0,1.07.07,1.07.07l.23-1.37A5.85,5.85,0,0,0,15.88,12c-1.15,0-1.53.45-1.53,2,0,1.76,1.15,1.6,1.15,2.29,0,.46-.54.54-.92.54"/><path class="cls-8" d="M44.81,12.9a2.12,2.12,0,0,0-1.45-.76c-1.37,0-1.83,1.68-1.83,3.66,0,1.22-.15,2.52,1.14,2.52a2.06,2.06,0,0,0,1.46-.61l-.08.54h1.53l1.14-7.33m-2,4c0,.84-.69,1.91-1.53,1.91-.54,0-.84-.46-.84-1.23,0-1.22.53-2,1.22-2A1.17,1.17,0,0,1,44.74,14.89Z"/><path class="cls-8" d="M2.82,18.17l.92-5.5.15,5.5H5l2-5.5-.84,5.5h1.6l1.22-7.33H7l-2.13,4.5-.08-4.5H4l-2.6,7.33Z"/><path class="cls-8" d="M24.89,18.17h1.6c.46-2.52.53-4.58,1.6-4.2a6.45,6.45,0,0,1,.54-1.76h-.31c-.68,0-1.22.92-1.22.92l.15-.84"/><path class="cls-8" d="M33.9,13.74a4.54,4.54,0,0,1,1.68-.3c.53,0,1,.07,1,.53,0,.31-.08.38-.08.38H35.8c-1.29,0-2.74.54-2.74,2.29,0,1.38.91,1.68,1.45,1.68a2.29,2.29,0,0,0,1.6-.69l-.08.62h1.38l.61-4.2c0-1.76-1.53-1.84-2.14-1.84M37,15.5A2.5,2.5,0,0,1,35.19,17a.6.6,0,0,1-.61-.61c0-.38.23-.92,1.38-.92A6.39,6.39,0,0,0,37,15.5Z"/><path class="cls-8" d="M37.71,18.17h1.61c.45-2.52.53-4.58,1.6-4.2a6.19,6.19,0,0,1,.53-1.76h-.3c-.69,0-1.22.92-1.22.92l.15-.84"/></g></g></svg>