<?xml version="1.0" encoding="UTF-8"?>
<svg xmlns="http://www.w3.org/2000/svg" xmlns:xlink="http://www.w3.org/1999/xlink" width="17pt" height="16pt" viewBox="0 0 17 16" version="1.1">
<g id="surface1">
<path style=" stroke:none;fill-rule:nonzero;fill:rgb(0%,0%,0%);fill-opacity:1;" d="M 16.777344 8.074219 C 16.777344 12.4375 13.449219 15.542969 8.523438 15.542969 C 3.808594 15.542969 0 12.125 0 7.894531 C 0 3.664062 3.808594 0.246094 8.523438 0.246094 C 10.820312 0.246094 12.753906 1.003906 14.242188 2.25 L 11.921875 4.25 C 8.886719 1.621094 3.242188 3.59375 3.242188 7.894531 C 3.242188 10.5625 5.617188 12.722656 8.523438 12.722656 C 11.902344 12.722656 13.167969 10.554688 13.363281 9.429688 L 8.523438 9.429688 L 8.523438 6.796875 L 16.640625 6.796875 C 16.71875 7.1875 16.777344 7.566406 16.777344 8.074219 Z M 16.777344 8.074219 "/>
</g>
</svg>
