<?xml version="1.0" encoding="UTF-8"?>
<svg xmlns="http://www.w3.org/2000/svg" xmlns:xlink="http://www.w3.org/1999/xlink" width="15pt" height="16pt" viewBox="0 0 15 16" version="1.1">
<g id="surface1">
<path style=" stroke:none;fill-rule:nonzero;fill:rgb(0%,0%,0%);fill-opacity:1;" d="M 3.261719 14 L 0.238281 14 L 0.238281 4.652344 L 3.261719 4.652344 Z M 1.75 3.378906 C 0.785156 3.378906 0 2.609375 0 1.679688 C 0 0.753906 0.785156 0 1.75 0 C 2.71875 0 3.503906 0.753906 3.503906 1.679688 C 3.503906 2.609375 2.71875 3.378906 1.75 3.378906 Z M 14.578125 14 L 11.5625 14 L 11.5625 9.449219 C 11.5625 8.367188 11.539062 6.976562 9.988281 6.976562 C 8.417969 6.976562 8.179688 8.152344 8.179688 9.371094 L 8.179688 14 L 5.160156 14 L 5.160156 4.652344 L 8.054688 4.652344 L 8.054688 5.929688 L 8.101562 5.929688 C 8.503906 5.195312 9.488281 4.417969 10.960938 4.417969 C 14.023438 4.417969 14.582031 6.351562 14.582031 8.867188 L 14.582031 14 Z M 14.578125 14 "/>
</g>
</svg>
