<svg id="Capa_1" data-name="Capa 1" xmlns="http://www.w3.org/2000/svg" viewBox="0 0 48.1 28.86"><defs><style>.cls-1{fill:#ffb600;}.cls-2{fill:#f7981d;}.cls-3{fill:#ff8500;}.cls-4{fill:#ff5050;}.cls-5{fill:#e52836;}.cls-6{fill:#cb2026;}.cls-7{fill:#fff;}.cls-8{fill:#dce5e5;}</style></defs><title>mastercard</title><path class="cls-1" d="M48.05,15a14.43,14.43,0,0,1-28.86,0h0a14.43,14.43,0,1,1,28.86,0Z" transform="translate(0.05 -0.57)"/><path class="cls-2" d="M33.62.57A14.47,14.47,0,0,1,48.05,15h0a14.43,14.43,0,0,1-28.86,0" transform="translate(0.05 -0.57)"/><path class="cls-3" d="M33.62.57A14.47,14.47,0,0,1,48.05,15h0A14.42,14.42,0,0,1,33.62,29.43" transform="translate(0.05 -0.57)"/><path class="cls-4" d="M14.23.57a14.43,14.43,0,0,0,.15,28.86,14.62,14.62,0,0,0,9.7-3.74h0a14,14,0,0,0,1.45-1.53h-3c-.38-.46-.76-1-1.07-1.45H26.6a10.19,10.19,0,0,0,.84-1.53h-6.8A8.61,8.61,0,0,1,20,19.66H28a15.11,15.11,0,0,0,.76-4.58,20.21,20.21,0,0,0-.3-3.06H19.57A12.06,12.06,0,0,1,20,10.5h7.94A8.72,8.72,0,0,0,27.28,9H20.56a16.56,16.56,0,0,1,.84-1.53h5.12a7.24,7.24,0,0,0-1.15-1.52H22.55A13.33,13.33,0,0,1,24,4.46,14.11,14.11,0,0,0,14.3.72C14.3.57,14.3.57,14.23.57Z" transform="translate(0.05 -0.57)"/><path class="cls-5" d="M0,15A14.42,14.42,0,0,0,14.38,29.43a14.62,14.62,0,0,0,9.7-3.74h0a14,14,0,0,0,1.45-1.53h-3c-.38-.46-.76-1-1.07-1.45H26.6a10.19,10.19,0,0,0,.84-1.53h-6.8A8.61,8.61,0,0,1,20,19.66H28a15.11,15.11,0,0,0,.76-4.58,20.21,20.21,0,0,0-.3-3.06H19.57A12.06,12.06,0,0,1,20,10.5h7.94A8.72,8.72,0,0,0,27.28,9H20.56a16.56,16.56,0,0,1,.84-1.53h5.12a7.24,7.24,0,0,0-1.15-1.52H22.55A13.33,13.33,0,0,1,24,4.46,14.11,14.11,0,0,0,14.3.72h-.07" transform="translate(0.05 -0.57)"/><path class="cls-6" d="M14.38,29.43a14.62,14.62,0,0,0,9.7-3.74h0a14,14,0,0,0,1.45-1.53h-3c-.38-.46-.76-1-1.07-1.45H26.6a10.19,10.19,0,0,0,.84-1.53h-6.8A8.61,8.61,0,0,1,20,19.66H28a15.11,15.11,0,0,0,.76-4.58,20.21,20.21,0,0,0-.3-3.06H19.57A12.06,12.06,0,0,1,20,10.5h7.94A8.72,8.72,0,0,0,27.28,9H20.56a16.56,16.56,0,0,1,.84-1.53h5.12a7.24,7.24,0,0,0-1.15-1.52H22.55A13.33,13.33,0,0,1,24,4.46,14.11,14.11,0,0,0,14.3.72h-.07" transform="translate(0.05 -0.57)"/><path class="cls-7" d="M19.5,18.66l.22-1.29a3,3,0,0,1-.38.07c-.53,0-.61-.3-.53-.46l.46-2.67h.84l.23-1.45h-.77l.15-.91H18.2s-.92,5-.92,5.65a1.14,1.14,0,0,0,1.22,1.29A2.35,2.35,0,0,0,19.5,18.66Z" transform="translate(0.05 -0.57)"/><path class="cls-7" d="M20,16.22a2.42,2.42,0,0,0,2.67,2.67,4,4,0,0,0,1.61-.23l.3-1.45a4.5,4.5,0,0,1-1.6.39c-1.68,0-1.38-1.23-1.38-1.23h3.13A9.82,9.82,0,0,0,25,15a2.06,2.06,0,0,0-2.21-2.21C21.18,12.63,20,14.31,20,16.22ZM22.7,14c.84,0,.69,1,.69,1.07H21.71C21.71,15,21.86,14,22.7,14Z" transform="translate(0.05 -0.57)"/><path class="cls-7" d="M32.4,18.66,32.7,17a3.67,3.67,0,0,1-1.29.39c-1.07,0-1.53-.84-1.53-1.76,0-1.83.91-2.82,2-2.82a2.58,2.58,0,0,1,1.38.45l.23-1.6a5.42,5.42,0,0,0-1.76-.38c-1.76,0-3.51,1.53-3.51,4.43,0,1.91.91,3.2,2.75,3.2A6.83,6.83,0,0,0,32.4,18.66Z" transform="translate(0.05 -0.57)"/><path class="cls-7" d="M11.1,12.63a5.31,5.31,0,0,0-1.83.31L9,14.24a4.41,4.41,0,0,1,1.68-.31c.53,0,1,.08,1,.54,0,.3-.08.38-.08.38H11c-1.3,0-2.75.53-2.75,2.29,0,1.37.91,1.68,1.45,1.68a2.29,2.29,0,0,0,1.6-.69l-.08.61h1.38l.61-4.2A1.81,1.81,0,0,0,11.1,12.63Zm.3,3.44c0,.23-.15,1.45-1.07,1.45a.6.6,0,0,1-.61-.61c0-.38.23-.92,1.38-.92A1.18,1.18,0,0,0,11.4,16.07Z" transform="translate(0.05 -0.57)"/><path class="cls-7" d="M14.61,18.82a2,2,0,0,0,2.29-2c0-1.91-1.83-1.52-1.83-2.29,0-.38.3-.53.84-.53.23,0,1.07.07,1.07.07l.23-1.37a6,6,0,0,0-1.45-.15c-1.15,0-2.3.46-2.3,2,0,1.76,1.91,1.61,1.91,2.29,0,.46-.53.54-.91.54a5,5,0,0,1-1.38-.23l-.23,1.37C12.93,18.66,13.31,18.82,14.61,18.82Z" transform="translate(0.05 -0.57)"/><path class="cls-7" d="M45.07,11.41l-.31,2.06a2.12,2.12,0,0,0-1.45-.76c-1.37,0-2.59,1.68-2.59,3.66,0,1.23.61,2.52,1.91,2.52a2.05,2.05,0,0,0,1.45-.61l-.08.54h1.53l1.14-7.33Zm-.69,4.05c0,.84-.38,1.91-1.22,1.91-.53,0-.84-.46-.84-1.22,0-1.23.54-2,1.22-2S44.38,14.54,44.38,15.46Z" transform="translate(0.05 -0.57)"/><path class="cls-7" d="M2.78,18.74l.91-5.5.16,5.5H4.91l2-5.5-.84,5.5h1.6l1.22-7.33H6.37L4.84,15.92l-.08-4.51H2.55L1.33,18.74Z" transform="translate(0.05 -0.57)"/><path class="cls-7" d="M26.44,18.74c.46-2.52.54-4.58,1.61-4.2a6,6,0,0,1,.53-1.75h-.3c-.69,0-1.23.91-1.23.91l.16-.84H25.76l-1,6h1.68Z" transform="translate(0.05 -0.57)"/><path class="cls-7" d="M35.91,12.63a5.31,5.31,0,0,0-1.83.31l-.23,1.3a4.47,4.47,0,0,1,1.68-.31c.53,0,1,.08,1,.54,0,.3-.08.38-.08.38h-.68c-1.3,0-2.75.53-2.75,2.29,0,1.37.91,1.68,1.45,1.68a2.26,2.26,0,0,0,1.6-.69l-.07.61h1.37l.61-4.2A1.78,1.78,0,0,0,35.91,12.63Zm.38,3.44c0,.23-.15,1.45-1.07,1.45a.59.59,0,0,1-.61-.61c0-.38.23-.92,1.38-.92C36.21,16.07,36.21,16.07,36.29,16.07Z" transform="translate(0.05 -0.57)"/><path class="cls-7" d="M39.27,18.74c.46-2.52.53-4.58,1.6-4.2a5.61,5.61,0,0,1,.54-1.75H41.1c-.69,0-1.22.91-1.22.91l.15-.84H38.58l-1,6h1.68Z" transform="translate(0.05 -0.57)"/><path class="cls-8" d="M17.13,17.6a1.14,1.14,0,0,0,1.22,1.29,2.87,2.87,0,0,0,1.15-.23l.22-1.29a3,3,0,0,1-.38.07c-.53,0-.61-.3-.53-.46l.46-2.67h.84l.23-1.45h-.77l.15-.91" transform="translate(0.05 -0.57)"/><path class="cls-8" d="M20.79,16.22c0,2.14.69,2.67,1.91,2.67a4,4,0,0,0,1.61-.23l.3-1.45a4.5,4.5,0,0,1-1.6.39c-1.68,0-1.38-1.23-1.38-1.23h3.13A9.82,9.82,0,0,0,25,15a2.06,2.06,0,0,0-2.21-2.21C21.18,12.63,20.79,14.31,20.79,16.22ZM22.7,14c.84,0,1,1,1,1.07h-2C21.71,15,21.86,14,22.7,14Z" transform="translate(0.05 -0.57)"/><path class="cls-8" d="M32.4,18.66,32.7,17a3.67,3.67,0,0,1-1.29.39c-1.07,0-1.53-.84-1.53-1.76,0-1.83.91-2.82,2-2.82a2.58,2.58,0,0,1,1.38.45l.23-1.6a5.42,5.42,0,0,0-1.76-.38C30,11.26,29,12.79,29,15.69c0,1.91.15,3.2,2,3.2A6.83,6.83,0,0,0,32.4,18.66Z" transform="translate(0.05 -0.57)"/><path class="cls-8" d="M9,14.31a4.54,4.54,0,0,1,1.68-.3c.53,0,1,.07,1,.53s-.08.38-.08.38H11c-1.3,0-2.75.54-2.75,2.29,0,1.38.91,1.68,1.45,1.68a2.3,2.3,0,0,0,1.6-.68l-.08.61h1.38l.61-4.2c0-1.76-1.53-1.83-2.14-1.83m1.15,3.28a2.5,2.5,0,0,1-1.84,1.45.6.6,0,0,1-.61-.61c0-.38.23-.92,1.38-.92A6,6,0,0,0,12.17,16.07Z" transform="translate(0.05 -0.57)"/><path class="cls-8" d="M12.93,18.66a6.22,6.22,0,0,0,1.76.16,2,2,0,0,0,2.29-2c0-1.91-1.84-1.52-1.84-2.29,0-.38.31-.53.84-.53.23,0,1.07.07,1.07.07l.23-1.37a5.85,5.85,0,0,0-1.45-.15c-1.14,0-1.53.46-1.53,2,0,1.76,1.15,1.61,1.15,2.29,0,.46-.53.54-.92.54" transform="translate(0.05 -0.57)"/><path class="cls-8" d="M44.76,13.47a2.12,2.12,0,0,0-1.45-.76c-1.37,0-1.83,1.68-1.83,3.66,0,1.23-.15,2.52,1.15,2.52a2.05,2.05,0,0,0,1.45-.61l-.08.54h1.53l1.14-7.33m-2,4c0,.84-.69,1.91-1.53,1.91-.53,0-.84-.46-.84-1.22,0-1.23.54-2,1.22-2A1.17,1.17,0,0,1,44.69,15.46Z" transform="translate(0.05 -0.57)"/><path class="cls-8" d="M2.78,18.74l.91-5.5.16,5.5H4.91l2-5.5-.84,5.5h1.6l1.22-7.33H7L4.84,15.92l-.08-4.51H3.92L1.33,18.74Z" transform="translate(0.05 -0.57)"/><path class="cls-8" d="M24.84,18.74h1.6c.46-2.52.54-4.58,1.61-4.2a6,6,0,0,1,.53-1.75h-.3c-.69,0-1.23.91-1.23.91l.16-.84" transform="translate(0.05 -0.57)"/><path class="cls-8" d="M33.85,14.31a4.6,4.6,0,0,1,1.68-.3c.53,0,1,.07,1,.53s-.08.38-.08.38h-.68c-1.3,0-2.75.54-2.75,2.29,0,1.38.91,1.68,1.45,1.68a2.27,2.27,0,0,0,1.6-.68l-.07.61h1.37l.61-4.2c0-1.76-1.53-1.83-2.14-1.83M37,16.07a2.5,2.5,0,0,1-1.83,1.45.59.59,0,0,1-.61-.61c0-.38.22-.92,1.37-.92A6.39,6.39,0,0,0,37,16.07Z" transform="translate(0.05 -0.57)"/><path class="cls-8" d="M37.67,18.74h1.6c.46-2.52.53-4.58,1.6-4.2a5.61,5.61,0,0,1,.54-1.75H41.1c-.69,0-1.22.91-1.22.91l.15-.84" transform="translate(0.05 -0.57)"/></svg>