<?xml version="1.0" encoding="utf-8"?>
<!-- Generator: Adobe Illustrator 23.0.0, SVG Export Plug-In . SVG Version: 6.00 Build 0)  -->
<svg version="1.1" id="Capa_1" xmlns="http://www.w3.org/2000/svg" xmlns:xlink="http://www.w3.org/1999/xlink" x="0px" y="0px"
	 viewBox="170.5 389.6 57 14.7" style="enable-background:new 170.5 389.6 57 14.7;" xml:space="preserve">
<style type="text/css">
	.st0{fill:#139AD6;}
	.st1{fill:#263B80;}
	.st2{fill:#232C65;}
</style>
<path class="st0" d="M214.4,393.6h-3c-0.2,0-0.4,0.2-0.4,0.4l-1.3,7.9c0,0.2,0.1,0.3,0.3,0.3h1.6c0.2,0,0.3-0.1,0.3-0.3l0.4-2.2
	c0-0.2,0.2-0.4,0.4-0.4h1c2.1,0,3.2-1,3.5-3c0.2-0.8,0-1.5-0.4-2C216.2,393.8,215.4,393.6,214.4,393.6 M214.7,396.5
	c-0.2,1.1-1,1.1-1.8,1.1h-0.5l0.4-2.1c0-0.1,0.1-0.2,0.3-0.2h0.2c0.5,0,1.1,0,1.3,0.4C214.7,395.8,214.7,396.1,214.7,396.5"/>
<g>
	<path class="st1" d="M192.5,393.6h-3c-0.2,0-0.4,0.2-0.4,0.4l-1.3,7.9c0,0.2,0.1,0.3,0.3,0.3h1.4c0.2,0,0.4-0.2,0.4-0.4l0.4-2.1
		c0-0.2,0.2-0.4,0.4-0.4h1c2.1,0,3.2-1,3.5-3c0.2-0.8,0-1.5-0.4-2C194.3,393.8,193.5,393.6,192.5,393.6 M192.8,396.5
		c-0.2,1.1-1,1.1-1.8,1.1h-0.4l0.4-2.1c0-0.1,0.1-0.2,0.3-0.2h0.2c0.5,0,1.1,0,1.3,0.4C192.8,395.8,192.9,396.1,192.8,396.5"/>
	<path class="st1" d="M201.7,396.4h-1.4c-0.1,0-0.3,0.1-0.3,0.2l-0.1,0.4l-0.1-0.2c-0.4-0.4-1-0.6-1.7-0.6c-1.6,0-3,1.3-3.3,3
		c-0.2,0.9,0.1,1.7,0.5,2.2c0.4,0.5,1.1,0.7,1.9,0.7c1.3,0,2.1-0.8,2.1-0.8l-0.1,0.4c0,0.2,0.1,0.3,0.3,0.3h1.3
		c0.2,0,0.4-0.2,0.4-0.4l0.8-5C202,396.6,201.8,396.4,201.7,396.4 M199.6,399.3c-0.2,0.8-0.8,1.4-1.7,1.4c-0.4,0-0.8-0.2-1-0.4
		c-0.2-0.3-0.3-0.6-0.3-1.1c0.1-0.8,0.8-1.4,1.6-1.4c0.4,0,0.7,0.2,1,0.4C199.5,398.5,199.6,398.9,199.6,399.3"/>
</g>
<path class="st0" d="M223.5,396.4h-1.4c-0.1,0-0.3,0.1-0.3,0.2l-0.1,0.4l-0.1-0.2c-0.4-0.4-1-0.6-1.7-0.6c-1.6,0-3,1.3-3.3,3
	c-0.2,0.9,0.1,1.7,0.5,2.2c0.4,0.5,1.1,0.7,1.9,0.7c1.3,0,2.1-0.8,2.1-0.8l-0.1,0.4c0,0.2,0.1,0.3,0.3,0.3h1.3
	c0.2,0,0.4-0.2,0.4-0.4l0.8-5C223.8,396.6,223.7,396.4,223.5,396.4 M221.4,399.3c-0.2,0.8-0.8,1.4-1.7,1.4c-0.4,0-0.8-0.2-1-0.4
	c-0.2-0.3-0.3-0.6-0.3-1.1c0.1-0.8,0.8-1.4,1.6-1.4c0.4,0,0.7,0.2,1,0.4C221.4,398.5,221.5,398.9,221.4,399.3"/>
<path class="st1" d="M209.5,396.4h-1.5c-0.2,0-0.3,0.1-0.4,0.2l-2,3l-0.9-2.9c-0.1-0.2-0.2-0.3-0.4-0.3h-1.4c-0.2,0-0.3,0.2-0.3,0.4
	l1.6,4.7l-1.5,2.1c-0.1,0.2,0,0.4,0.2,0.4h1.4c0.2,0,0.3-0.1,0.4-0.2l4.9-7.1C209.8,396.7,209.6,396.4,209.5,396.4"/>
<path class="st0" d="M225.2,393.8l-1.3,8c0,0.2,0.1,0.3,0.3,0.3h1.3c0.2,0,0.4-0.2,0.4-0.4l1.3-7.9c0-0.2-0.1-0.3-0.3-0.3h-1.4
	C225.4,393.6,225.3,393.6,225.2,393.8"/>
<path class="st1" d="M181.1,390.9c-0.6-0.7-1.8-1.1-3.4-1.1h-4.5c-0.3,0-0.5,0.3-0.6,0.5l-1.8,11.7c0,0.3,0.2,0.4,0.4,0.4h2.8
	l0.7-4.4v0.2c0.1-0.3,0.4-0.5,0.6-0.5h1.3c2.6,0,4.6-1.1,5.2-4c0-0.1,0-0.2,0-0.3c-0.1,0-0.1,0,0,0
	C181.9,392.3,181.7,391.6,181.1,390.9"/>
<path class="st0" d="M181.7,393.5L181.7,393.5c0,0.1,0,0.2,0,0.3c-0.6,3-2.6,4-5.2,4h-1.3c-0.3,0-0.5,0.3-0.6,0.5l-0.9,5.5
	c0,0.2,0.1,0.4,0.4,0.4h2.3c0.3,0,0.5-0.2,0.5-0.4v-0.1l0.4-2.8v-0.2c0-0.3,0.3-0.4,0.5-0.4h0.4c2.2,0,4-0.9,4.5-3.6
	c0.2-1.1,0.1-2.1-0.4-2.7C182.2,393.7,182,393.6,181.7,393.5"/>
<path class="st2" d="M181.1,393.2c-0.1,0-0.2-0.1-0.3-0.1c-0.1,0-0.2,0-0.3-0.1c-0.4-0.1-0.7-0.1-1.2-0.1h-3.5c-0.1,0-0.2,0-0.3,0.1
	c-0.2,0.1-0.3,0.3-0.3,0.4l-0.7,4.7v0.2c0.1-0.3,0.4-0.5,0.6-0.5h1.3c2.6,0,4.6-1.1,5.2-4c0-0.1,0-0.2,0.1-0.3
	c-0.2-0.1-0.3-0.2-0.4-0.2C181.2,393.2,181.2,393.2,181.1,393.2"/>
</svg>
