<?xml version="1.0" encoding="utf-8"?>
<!-- Generator: Adobe Illustrator 23.0.0, SVG Export Plug-In . SVG Version: 6.00 Build 0)  -->
<svg version="1.1" id="Capa_1" xmlns="http://www.w3.org/2000/svg" xmlns:xlink="http://www.w3.org/1999/xlink" x="0px" y="0px"
	 viewBox="182.9 380.4 48.1 33.2" style="enable-background:new 182.9 380.4 48.1 33.2;" xml:space="preserve">
<style type="text/css">
	.st0{fill:#FFFFFF;}
	.st1{fill:#F79F1A;}
	.st2{fill:#059BBF;}
	.st3{opacity:0.15;fill:#202121;enable-background:new    ;}
</style>
<path class="st0" d="M231,410.7c0,1.6-1.3,2.8-2.8,2.8h-42.3c-1.6,0-2.8-1.3-2.8-2.8v-27.4c0-1.6,1.3-2.8,2.8-2.8h42.3
	c1.6,0,2.8,1.3,2.8,2.8V410.7L231,410.7z"/>
<path class="st1" d="M193.7,397.2l-1.1-5.4c-0.2-0.7-0.8-1-1.5-1h-5.2l0,0.2C189.9,392,192.5,394.4,193.7,397.2z"/>
<g>
	<polygon class="st2" points="205.6,390.9 202.3,390.9 200.2,403.1 203.5,403.1 	"/>
	<path class="st2" d="M195.7,403.1l5.3-12.2h-3.5l-3.3,8.3l-0.3-1.3c-0.6-1.5-2.5-3.7-4.6-5.1l3,10.2L195.7,403.1z"/>
	<path class="st2" d="M215.1,399.1c0-1.4-0.9-2.4-2.8-3.3c-1.2-0.6-1.9-0.9-1.9-1.5c0-0.5,0.6-1.1,1.9-1.1c1.1,0,1.9,0.2,2.5,0.5
		l0.3,0.1l0.5-2.7c-0.7-0.2-1.7-0.5-3-0.5c-3.3,0-5.6,1.7-5.6,4c0,1.8,1.7,2.7,2.9,3.3c1.3,0.6,1.7,1,1.7,1.5c0,0.8-1,1.2-2,1.2
		c-1.3,0-2-0.2-3.1-0.6l-0.4-0.2l-0.5,2.7c0.8,0.3,2.2,0.6,3.7,0.6C212.8,403.3,215.1,401.7,215.1,399.1z"/>
	<path class="st2" d="M219.1,401.3c0.4,0,3.8,0,4.3,0c0.1,0.4,0.4,1.8,0.4,1.8h3.1l-2.7-12.2h-2.6c-0.8,0-1.4,0.2-1.7,1l-5,11.2h3.5
		C218.4,403.1,219,401.6,219.1,401.3z M221.4,395.4c0,0,0.3-0.7,0.4-1.2l0.2,1.1c0,0,0.6,2.9,0.8,3.5h-2.8
		C220.4,398.1,221.4,395.4,221.4,395.4z"/>
	<path class="st2" d="M228.2,380.4h-42.3c-1.6,0-2.8,1.3-2.8,2.8v2.9h48v-2.9C231,381.7,229.7,380.4,228.2,380.4z"/>
</g>
<path class="st1" d="M228.2,413.6h-42.3c-1.6,0-2.8-1.3-2.8-2.8v-2.9h48v2.9C231,412.3,229.7,413.6,228.2,413.6z"/>
<path class="st3" d="M185,410.7v-27.4c0-1.6,1.3-2.8,2.8-2.8h-2c-1.6,0-2.8,1.3-2.8,2.8v27.4c0,1.6,1.3,2.8,2.8,2.8h2
	C186.3,413.6,185,412.3,185,410.7z"/>
</svg>
