<svg id="Capa_1" data-name="Capa 1" xmlns="http://www.w3.org/2000/svg" viewBox="0 0 48.1 28.86"><defs><style>.cls-7{fill:#fff}</style></defs><path d="M48.05 15a14.43 14.43 0 01-28.86 0 14.43 14.43 0 1128.86 0z" transform="translate(.05 -.57)" fill="#ffb600"/><path d="M33.62.57A14.47 14.47 0 0148.05 15a14.43 14.43 0 01-28.86 0" transform="translate(.05 -.57)" fill="#f7981d"/><path d="M33.62.57A14.47 14.47 0 0148.05 15a14.42 14.42 0 01-14.43 14.43" transform="translate(.05 -.57)" fill="#ff8500"/><path d="M14.23.57a14.43 14.43 0 00.15 28.86 14.62 14.62 0 009.7-3.74 14 14 0 001.45-1.53h-3c-.38-.46-.76-1-1.07-1.45h5.14a10.19 10.19 0 00.84-1.53h-6.8a8.61 8.61 0 01-.64-1.52h8a15.11 15.11 0 00.76-4.58 20.21 20.21 0 00-.3-3.06h-8.89A12.06 12.06 0 0120 10.5h7.94a8.72 8.72 0 00-.66-1.5h-6.72a16.56 16.56 0 01.84-1.53h5.12a7.24 7.24 0 00-1.15-1.52h-2.82A13.33 13.33 0 0124 4.46 14.11 14.11 0 0014.3.72c0-.15 0-.15-.07-.15z" transform="translate(.05 -.57)" fill="#ff5050"/><path d="M0 15a14.42 14.42 0 0014.38 14.43 14.62 14.62 0 009.7-3.74 14 14 0 001.45-1.53h-3c-.38-.46-.76-1-1.07-1.45h5.14a10.19 10.19 0 00.84-1.53h-6.8a8.61 8.61 0 01-.64-1.52h8a15.11 15.11 0 00.76-4.58 20.21 20.21 0 00-.3-3.06h-8.89A12.06 12.06 0 0120 10.5h7.94a8.72 8.72 0 00-.66-1.5h-6.72a16.56 16.56 0 01.84-1.53h5.12a7.24 7.24 0 00-1.15-1.52h-2.82A13.33 13.33 0 0124 4.46 14.11 14.11 0 0014.3.72h-.07" transform="translate(.05 -.57)" fill="#e52836"/><path d="M14.38 29.43a14.62 14.62 0 009.7-3.74 14 14 0 001.45-1.53h-3c-.38-.46-.76-1-1.07-1.45h5.14a10.19 10.19 0 00.84-1.53h-6.8a8.61 8.61 0 01-.64-1.52h8a15.11 15.11 0 00.76-4.58 20.21 20.21 0 00-.3-3.06h-8.89A12.06 12.06 0 0120 10.5h7.94a8.72 8.72 0 00-.66-1.5h-6.72a16.56 16.56 0 01.84-1.53h5.12a7.24 7.24 0 00-1.15-1.52h-2.82A13.33 13.33 0 0124 4.46 14.11 14.11 0 0014.3.72h-.07" transform="translate(.05 -.57)" fill="#cb2026"/><path class="cls-7" d="M19.5 18.66l.22-1.29a3 3 0 01-.38.07c-.53 0-.61-.3-.53-.46l.46-2.67h.84l.23-1.45h-.77l.15-.91H18.2s-.92 5-.92 5.65a1.14 1.14 0 001.22 1.29 2.35 2.35 0 001-.23z" transform="translate(.05 -.57)"/><path class="cls-7" d="M20 16.22a2.42 2.42 0 002.67 2.67 4 4 0 001.61-.23l.3-1.45a4.5 4.5 0 01-1.6.39c-1.68 0-1.38-1.23-1.38-1.23h3.13A9.82 9.82 0 0025 15a2.06 2.06 0 00-2.21-2.21c-1.61-.16-2.79 1.52-2.79 3.43zM22.7 14c.84 0 .69 1 .69 1.07h-1.68c0-.07.15-1.07.99-1.07zm9.7 4.66l.3-1.66a3.67 3.67 0 01-1.29.39c-1.07 0-1.53-.84-1.53-1.76 0-1.83.91-2.82 2-2.82a2.58 2.58 0 011.38.45l.23-1.6a5.42 5.42 0 00-1.76-.38c-1.76 0-3.51 1.53-3.51 4.43 0 1.91.91 3.2 2.75 3.2a6.83 6.83 0 001.43-.25zm-21.3-6.03a5.31 5.31 0 00-1.83.31L9 14.24a4.41 4.41 0 011.68-.31c.53 0 1 .08 1 .54 0 .3-.08.38-.08.38H11c-1.3 0-2.75.53-2.75 2.29 0 1.37.91 1.68 1.45 1.68a2.29 2.29 0 001.6-.69l-.08.61h1.38l.61-4.2a1.81 1.81 0 00-2.11-1.91zm.3 3.44c0 .23-.15 1.45-1.07 1.45a.6.6 0 01-.61-.61c0-.38.23-.92 1.38-.92a1.18 1.18 0 00.3.08zm3.21 2.75a2 2 0 002.29-2c0-1.91-1.83-1.52-1.83-2.29 0-.38.3-.53.84-.53.23 0 1.07.07 1.07.07l.23-1.37a6 6 0 00-1.45-.15c-1.15 0-2.3.46-2.3 2 0 1.76 1.91 1.61 1.91 2.29 0 .46-.53.54-.91.54a5 5 0 01-1.38-.23l-.23 1.37c.08.14.46.3 1.76.3zm30.46-7.41l-.31 2.06a2.12 2.12 0 00-1.45-.76c-1.37 0-2.59 1.68-2.59 3.66 0 1.23.61 2.52 1.91 2.52a2.05 2.05 0 001.45-.61l-.08.54h1.53l1.14-7.33zm-.69 4.05c0 .84-.38 1.91-1.22 1.91-.53 0-.84-.46-.84-1.22 0-1.23.54-2 1.22-2s.84.39.84 1.31zm-41.6 3.28l.91-5.5.16 5.5h1.06l2-5.5-.84 5.5h1.6l1.22-7.33H6.37l-1.53 4.51-.08-4.51H2.55l-1.22 7.33zm23.66 0c.46-2.52.54-4.58 1.61-4.2a6 6 0 01.53-1.75h-.3c-.69 0-1.23.91-1.23.91l.16-.84h-1.45l-1 6h1.68zm9.47-6.11a5.31 5.31 0 00-1.83.31l-.23 1.3a4.47 4.47 0 011.68-.31c.53 0 1 .08 1 .54 0 .3-.08.38-.08.38h-.68c-1.3 0-2.75.53-2.75 2.29 0 1.37.91 1.68 1.45 1.68a2.26 2.26 0 001.6-.69l-.07.61h1.37l.61-4.2a1.78 1.78 0 00-2.07-1.91zm.38 3.44c0 .23-.15 1.45-1.07 1.45a.59.59 0 01-.61-.61c0-.38.23-.92 1.38-.92.22.08.22.08.3.08zm2.98 2.67c.46-2.52.53-4.58 1.6-4.2a5.61 5.61 0 01.54-1.75h-.31c-.69 0-1.22.91-1.22.91l.15-.84h-1.45l-1 6h1.68z" transform="translate(.05 -.57)"/><path d="M17.13 17.6a1.14 1.14 0 001.22 1.29 2.87 2.87 0 001.15-.23l.22-1.29a3 3 0 01-.38.07c-.53 0-.61-.3-.53-.46l.46-2.67h.84l.23-1.45h-.77l.15-.91m1.07 4.27c0 2.14.69 2.67 1.91 2.67a4 4 0 001.61-.23l.3-1.45a4.5 4.5 0 01-1.6.39c-1.68 0-1.38-1.23-1.38-1.23h3.13A9.82 9.82 0 0025 15a2.06 2.06 0 00-2.21-2.21c-1.61-.16-2 1.52-2 3.43zM22.7 14c.84 0 1 1 1 1.07h-2c.01-.07.16-1.07 1-1.07zm9.7 4.66l.3-1.66a3.67 3.67 0 01-1.29.39c-1.07 0-1.53-.84-1.53-1.76 0-1.83.91-2.82 2-2.82a2.58 2.58 0 011.38.45l.23-1.6a5.42 5.42 0 00-1.76-.38C30 11.26 29 12.79 29 15.69c0 1.91.15 3.2 2 3.2a6.83 6.83 0 001.4-.23zM9 14.31a4.54 4.54 0 011.68-.3c.53 0 1 .07 1 .53s-.08.38-.08.38H11c-1.3 0-2.75.54-2.75 2.29 0 1.38.91 1.68 1.45 1.68a2.3 2.3 0 001.6-.68l-.08.61h1.38l.61-4.2c0-1.76-1.53-1.83-2.14-1.83m1.15 3.28a2.5 2.5 0 01-1.84 1.45.6.6 0 01-.61-.61c0-.38.23-.92 1.38-.92a6 6 0 001.02.08zm.71 2.59a6.22 6.22 0 001.76.16 2 2 0 002.29-2c0-1.91-1.84-1.52-1.84-2.29 0-.38.31-.53.84-.53.23 0 1.07.07 1.07.07l.23-1.37a5.85 5.85 0 00-1.45-.15c-1.14 0-1.53.46-1.53 2 0 1.76 1.15 1.61 1.15 2.29 0 .46-.53.54-.92.54m30.23-3.91a2.12 2.12 0 00-1.45-.76c-1.37 0-1.83 1.68-1.83 3.66 0 1.23-.15 2.52 1.15 2.52a2.05 2.05 0 001.45-.61l-.08.54h1.53l1.14-7.33m-2 4c0 .84-.69 1.91-1.53 1.91-.53 0-.84-.46-.84-1.22 0-1.23.54-2 1.22-2a1.17 1.17 0 011.17 1.28zM2.78 18.74l.91-5.5.16 5.5h1.06l2-5.5-.84 5.5h1.6l1.22-7.33H7l-2.16 4.51-.08-4.51h-.84l-2.59 7.33zm22.06 0h1.6c.46-2.52.54-4.58 1.61-4.2a6 6 0 01.53-1.75h-.3c-.69 0-1.23.91-1.23.91l.16-.84m6.64 1.45a4.6 4.6 0 011.68-.3c.53 0 1 .07 1 .53s-.08.38-.08.38h-.68c-1.3 0-2.75.54-2.75 2.29 0 1.38.91 1.68 1.45 1.68a2.27 2.27 0 001.6-.68l-.07.61h1.37l.61-4.2c0-1.76-1.53-1.83-2.14-1.83M37 16.07a2.5 2.5 0 01-1.83 1.45.59.59 0 01-.61-.61c0-.38.22-.92 1.37-.92a6.39 6.39 0 001.07.08zm.67 2.67h1.6c.46-2.52.53-4.58 1.6-4.2a5.61 5.61 0 01.54-1.75h-.31c-.69 0-1.22.91-1.22.91l.15-.84" transform="translate(.05 -.57)" fill="#dce5e5"/></svg>