<svg version="1.1" id="Capa_1" xmlns="http://www.w3.org/2000/svg" x="0" y="0" viewBox="170.5 389.6 57 14.7" xml:space="preserve"><style>.st0{fill:#139ad6}.st1{fill:#263b80}</style><path class="st0" d="M214.4 393.6h-3c-.2 0-.4.2-.4.4l-1.3 7.9c0 .2.1.3.3.3h1.6c.2 0 .3-.1.3-.3l.4-2.2c0-.2.2-.4.4-.4h1c2.1 0 3.2-1 3.5-3 .2-.8 0-1.5-.4-2-.6-.5-1.4-.7-2.4-.7m.3 2.9c-.2 1.1-1 1.1-1.8 1.1h-.5l.4-2.1c0-.1.1-.2.3-.2h.2c.5 0 1.1 0 1.3.4.1.1.1.4.1.8"/><path class="st1" d="M192.5 393.6h-3c-.2 0-.4.2-.4.4l-1.3 7.9c0 .2.1.3.3.3h1.4c.2 0 .4-.2.4-.4l.4-2.1c0-.2.2-.4.4-.4h1c2.1 0 3.2-1 3.5-3 .2-.8 0-1.5-.4-2-.5-.5-1.3-.7-2.3-.7m.3 2.9c-.2 1.1-1 1.1-1.8 1.1h-.4l.4-2.1c0-.1.1-.2.3-.2h.2c.5 0 1.1 0 1.3.4 0 .1.1.4 0 .8m8.9-.1h-1.4c-.1 0-.3.1-.3.2l-.1.4-.1-.2c-.4-.4-1-.6-1.7-.6-1.6 0-3 1.3-3.3 3-.2.9.1 1.7.5 2.2.4.5 1.1.7 1.9.7 1.3 0 2.1-.8 2.1-.8l-.1.4c0 .2.1.3.3.3h1.3c.2 0 .4-.2.4-.4l.8-5s-.2-.2-.3-.2m-2.1 2.9c-.2.8-.8 1.4-1.7 1.4-.4 0-.8-.2-1-.4-.2-.3-.3-.6-.3-1.1.1-.8.8-1.4 1.6-1.4.4 0 .7.2 1 .4.3.3.4.7.4 1.1"/><path class="st0" d="M223.5 396.4h-1.4c-.1 0-.3.1-.3.2l-.1.4-.1-.2c-.4-.4-1-.6-1.7-.6-1.6 0-3 1.3-3.3 3-.2.9.1 1.7.5 2.2.4.5 1.1.7 1.9.7 1.3 0 2.1-.8 2.1-.8l-.1.4c0 .2.1.3.3.3h1.3c.2 0 .4-.2.4-.4l.8-5s-.1-.2-.3-.2m-2.1 2.9c-.2.8-.8 1.4-1.7 1.4-.4 0-.8-.2-1-.4-.2-.3-.3-.6-.3-1.1.1-.8.8-1.4 1.6-1.4.4 0 .7.2 1 .4.4.3.5.7.4 1.1"/><path class="st1" d="M209.5 396.4H208c-.2 0-.3.1-.4.2l-2 3-.9-2.9c-.1-.2-.2-.3-.4-.3h-1.4c-.2 0-.3.2-.3.4l1.6 4.7-1.5 2.1c-.1.2 0 .4.2.4h1.4c.2 0 .3-.1.4-.2l4.9-7.1c.2 0 0-.3-.1-.3"/><path class="st0" d="M225.2 393.8l-1.3 8c0 .2.1.3.3.3h1.3c.2 0 .4-.2.4-.4l1.3-7.9c0-.2-.1-.3-.3-.3h-1.4c-.1.1-.2.1-.3.3"/><path class="st1" d="M181.1 390.9c-.6-.7-1.8-1.1-3.4-1.1h-4.5c-.3 0-.5.3-.6.5l-1.8 11.7c0 .3.2.4.4.4h2.8l.7-4.4v.2c.1-.3.4-.5.6-.5h1.3c2.6 0 4.6-1.1 5.2-4v-.3c-.1 0-.1 0 0 0 .1-1.1-.1-1.8-.7-2.5"/><path class="st0" d="M181.7 393.5v.3c-.6 3-2.6 4-5.2 4h-1.3c-.3 0-.5.3-.6.5l-.9 5.5c0 .2.1.4.4.4h2.3c.3 0 .5-.2.5-.4v-.1l.4-2.8v-.2c0-.3.3-.4.5-.4h.4c2.2 0 4-.9 4.5-3.6.2-1.1.1-2.1-.4-2.7-.1-.3-.3-.4-.6-.5"/><path d="M181.1 393.2c-.1 0-.2-.1-.3-.1-.1 0-.2 0-.3-.1-.4-.1-.7-.1-1.2-.1h-3.5c-.1 0-.2 0-.3.1-.2.1-.3.3-.3.4l-.7 4.7v.2c.1-.3.4-.5.6-.5h1.3c2.6 0 4.6-1.1 5.2-4 0-.1 0-.2.1-.3-.2-.1-.3-.2-.4-.2-.1-.1-.1-.1-.2-.1" fill="#232c65"/></svg>