<svg xmlns="http://www.w3.org/2000/svg" width="13pt" height="16pt" viewBox="0 0 13 16"><path d="M6.906.203C3.434.203 0 2.34 0 5.801 0 8 1.34 9.25 2.152 9.25c.336 0 .532-.863.532-1.105 0-.293-.805-.91-.805-2.122 0-2.511 2.074-4.293 4.754-4.293 2.304 0 4.012 1.211 4.012 3.434 0 1.656-.723 4.77-3.06 4.77-.839 0-1.562-.563-1.562-1.368 0-1.183.891-2.324.891-3.543 0-2.07-3.176-1.695-3.176.805 0 .524.07 1.106.325 1.586-.465 1.856-1.422 4.621-1.422 6.531 0 .594.093 1.172.152 1.766.113.117.059.105.234.047 1.703-2.156 1.645-2.578 2.414-5.403.418.73 1.497 1.125 2.348 1.125C11.383 11.48 13 8.246 13 5.332 13 2.227 10.098.203 6.906.203zm0 0" id="surface1"/></svg>