<svg version="1.1" id="Capa_1" xmlns="http://www.w3.org/2000/svg" x="0" y="0" viewBox="182.9 380.4 48.1 33.2" xml:space="preserve"><style>.st1{fill:#f79f1a}</style><path d="M231 410.7c0 1.6-1.3 2.8-2.8 2.8h-42.3c-1.6 0-2.8-1.3-2.8-2.8v-27.4c0-1.6 1.3-2.8 2.8-2.8h42.3c1.6 0 2.8 1.3 2.8 2.8v27.4z" fill="#fff"/><path class="st1" d="M193.7 397.2l-1.1-5.4c-.2-.7-.8-1-1.5-1h-5.2v.2c4 1 6.6 3.4 7.8 6.2z"/><path d="M205.6 390.9h-3.3l-2.1 12.2h3.3zm-9.9 12.2l5.3-12.2h-3.5l-3.3 8.3-.3-1.3c-.6-1.5-2.5-3.7-4.6-5.1l3 10.2 3.4.1zm19.4-4c0-1.4-.9-2.4-2.8-3.3-1.2-.6-1.9-.9-1.9-1.5 0-.5.6-1.1 1.9-1.1 1.1 0 1.9.2 2.5.5l.3.1.5-2.7c-.7-.2-1.7-.5-3-.5-3.3 0-5.6 1.7-5.6 4 0 1.8 1.7 2.7 2.9 3.3 1.3.6 1.7 1 1.7 1.5 0 .8-1 1.2-2 1.2-1.3 0-2-.2-3.1-.6l-.4-.2-.5 2.7c.8.3 2.2.6 3.7.6 3.5.2 5.8-1.4 5.8-4zm4 2.2h4.3c.1.4.4 1.8.4 1.8h3.1l-2.7-12.2h-2.6c-.8 0-1.4.2-1.7 1l-5 11.2h3.5s.6-1.5.7-1.8zm2.3-5.9s.3-.7.4-1.2l.2 1.1s.6 2.9.8 3.5H220c.4-.7 1.4-3.4 1.4-3.4zm6.8-15h-42.3c-1.6 0-2.8 1.3-2.8 2.8v2.9h48v-2.9c-.1-1.5-1.4-2.8-2.9-2.8z" fill="#059bbf"/><path class="st1" d="M228.2 413.6h-42.3c-1.6 0-2.8-1.3-2.8-2.8v-2.9h48v2.9c-.1 1.5-1.4 2.8-2.9 2.8z"/><path d="M185 410.7v-27.4c0-1.6 1.3-2.8 2.8-2.8h-2c-1.6 0-2.8 1.3-2.8 2.8v27.4c0 1.6 1.3 2.8 2.8 2.8h2c-1.5.1-2.8-1.2-2.8-2.8z" opacity=".15" fill="#202121"/></svg>